<svg xmlns="http://www.w3.org/2000/svg" width="64" height="64" viewBox="0 0 256 257" fill="none">
  <defs>
    <linearGradient id="g1" x1="0" y1="0" x2="1" y2="1">
      <stop offset="0%" stop-color="#41D1FF"/>
      <stop offset="100%" stop-color="#BD34FE"/>
    </linearGradient>
    <linearGradient id="g2" x1="0" y1="0" x2="1" y2="1">
      <stop offset="0%" stop-color="#FFEA83"/>
      <stop offset="8.333%" stop-color="#FFDD35"/>
      <stop offset="100%" stop-color="#FFA800"/>
    </linearGradient>
  </defs>
  <path d="M255.153 37.938L134.897 252.976c-2.483 4.45-8.93 4.41-11.357-.073L.875 37.94c-2.746-4.973 1.6-10.862 7.078-9.818l120.43 22.05a6.5 6.5 0 0 0 2.32 0l117.29-22.003c5.47-1.026 9.833 4.82 7.11 9.8z" fill="url(#g1)"/>
  <path d="M185.432 0.063L96.44 17.19a4 4 0 0 0-3.258 3.264l-7.91 45.25a4 4 0 0 0 4.905 4.63l25.38-5.57c3.455-.76 6.57 2.24 5.79 5.69l-7.53 33.2c-.79 3.49 2.39 6.52 5.86 5.67l15.66-3.88c3.48-.86 6.67 2.18 5.86 5.67l-12 52.94c-.97 4.26 4.73 6.73 7.37 3.05l1.12-1.56 74.36-148.08c1.86-3.71-1.35-7.98-5.46-7.18l-26.88 5.24c-3.49.68-6.45-2.65-5.56-6.09l8.25-31.64c.9-3.47-2.32-6.8-5.82-6.09z" fill="url(#g2)"/>
</svg>
